<svg width="149" height="25" viewBox="0 0 149 25" fill="none" xmlns="http://www.w3.org/2000/svg">
<g clip-path="url(#clip0_99_1018)">
<path d="M0 4.75408V0.601074H19.6601V4.75408H12.339V24.4535H7.34855V4.75408H0Z" fill="black"/>
<path d="M25.5005 24.7814C24.3489 24.7814 23.3344 24.5902 22.4295 24.1803C21.5247 23.7705 20.8392 23.1967 20.3182 22.4044C19.7972 21.612 19.5504 20.6284 19.5504 19.4535C19.5504 18.4699 19.7424 17.6229 20.0988 16.9399C20.4553 16.2568 20.9763 15.7104 21.6069 15.3005C22.2376 14.8907 22.9505 14.5902 23.7731 14.3716C24.5957 14.153 25.4183 14.0164 26.3231 13.9344C27.3651 13.8251 28.2151 13.7158 28.8458 13.6339C29.4764 13.5519 29.9426 13.388 30.2442 13.1967C30.5184 13.0055 30.6829 12.7049 30.6829 12.3497V12.2677C30.6829 11.53 30.4636 10.9563 29.9974 10.5464C29.5313 10.1366 28.8732 9.94534 28.0232 9.94534C27.1183 9.94534 26.4054 10.1366 25.8844 10.5191C25.3634 10.9016 25.007 11.3934 24.8425 11.9945L20.2359 11.612C20.4553 10.5191 20.9214 9.59015 21.6069 8.7978C22.2924 8.00545 23.1698 7.37704 24.2666 6.9672C25.3634 6.53004 26.6248 6.31146 28.0506 6.31146C29.0377 6.31146 29.9974 6.42075 30.9297 6.66665C31.8346 6.91256 32.6572 7.26775 33.3701 7.75955C34.083 8.25135 34.6314 8.87977 35.0701 9.6448C35.4814 10.4098 35.7008 11.3115 35.7008 12.377V24.4262H30.9845V21.9399H30.8474C30.5458 22.4863 30.1619 22.9781 29.6958 23.4153C29.2022 23.8251 28.6264 24.1803 27.9409 24.3989C27.2554 24.6448 26.4877 24.7541 25.5828 24.7541L25.5005 24.7814ZM26.9264 21.3661C27.6667 21.3661 28.2974 21.2295 28.8732 20.9289C29.449 20.6284 29.8603 20.2459 30.1894 19.7541C30.5184 19.2623 30.6555 18.6885 30.6555 18.0601V16.1749C30.491 16.2841 30.299 16.3661 30.0248 16.4481C29.7506 16.53 29.449 16.612 29.12 16.6667C28.7909 16.7213 28.4619 16.8033 28.1054 16.8306C27.749 16.8579 27.4748 16.9126 27.2006 16.9672C26.6248 17.0492 26.1038 17.1858 25.6651 17.377C25.2263 17.5683 24.8973 17.8142 24.6505 18.1147C24.4037 18.4153 24.2941 18.8251 24.2941 19.2896C24.2941 19.9727 24.5408 20.4918 25.0344 20.8197C25.528 21.1749 26.1586 21.3388 26.9264 21.3388V21.3661Z" fill="black"/>
<path d="M39.567 24.4262V0.601074H44.5574V9.56282H44.722C44.9413 9.07102 45.2704 8.57922 45.6817 8.08741C46.093 7.59561 46.6414 7.15845 47.3269 6.83058C48.0124 6.50271 48.835 6.31146 49.8495 6.31146C51.1657 6.31146 52.3721 6.63933 53.4689 7.32239C54.5657 8.00545 55.4706 9.01638 56.1287 10.3825C56.7867 11.7486 57.1158 13.4426 57.1158 15.4918C57.1158 17.541 56.7867 19.1803 56.1561 20.5464C55.5254 21.9126 54.648 22.9508 53.5512 23.6612C52.4544 24.3716 51.2205 24.7268 49.8495 24.7268C48.8898 24.7268 48.0672 24.5628 47.3817 24.2623C46.6962 23.9344 46.1478 23.5519 45.7365 23.0601C45.2978 22.5683 44.9687 22.0765 44.7494 21.5847H44.53V24.4535H39.6219L39.567 24.4262ZM44.4478 15.4918C44.4478 16.5574 44.5849 17.4863 44.8865 18.2787C45.1881 19.071 45.5994 19.6994 46.1752 20.1366C46.7236 20.5738 47.4091 20.7923 48.2317 20.7923C49.0543 20.7923 49.7398 20.5738 50.2882 20.1093C50.8366 19.6721 51.2753 19.0437 51.577 18.2513C51.8786 17.459 52.0157 16.53 52.0157 15.4918C52.0157 14.4535 51.8786 13.5519 51.577 12.7595C51.2753 11.9672 50.864 11.3661 50.3156 10.9289C49.7672 10.4918 49.0543 10.2732 48.2591 10.2732C47.464 10.2732 46.7785 10.4918 46.2026 10.9016C45.6268 11.3115 45.2155 11.9399 44.9139 12.7049C44.6123 13.4973 44.4752 14.3989 44.4752 15.4645L44.4478 15.4918Z" fill="black"/>
<path d="M65.3418 0.601074V24.4262H60.3788V0.601074H65.3418Z" fill="black"/>
<path d="M77.5162 24.7814C75.6791 24.7814 74.0887 24.3989 72.7451 23.6612C71.429 22.9235 70.387 21.8579 69.6741 20.4645C68.9612 19.0983 68.6047 17.459 68.6047 15.5738C68.6047 13.6885 68.9612 12.1311 69.6741 10.7377C70.387 9.34425 71.4016 8.27868 72.7177 7.48633C74.0339 6.7213 75.542 6.31146 77.3243 6.31146C78.5033 6.31146 79.6001 6.50272 80.6421 6.88523C81.6566 7.26775 82.5615 7.8142 83.3292 8.57922C84.097 9.34425 84.7002 10.2732 85.1115 11.4208C85.5503 12.5683 85.7422 13.8798 85.7422 15.4098V16.7759H70.579V13.7158H81.0534C81.0534 13.0055 80.8889 12.377 80.5873 11.8306C80.2856 11.2841 79.8469 10.847 79.2985 10.5191C78.7501 10.1912 78.1195 10.0546 77.3791 10.0546C76.6388 10.0546 75.9533 10.2186 75.3775 10.5738C74.8016 10.9289 74.3355 11.3934 74.0065 11.9672C73.6774 12.541 73.5129 13.1967 73.5129 13.9071V16.8306C73.5129 17.7049 73.6774 18.4699 74.0065 19.1257C74.3355 19.7814 74.8016 20.2732 75.4049 20.6284C76.0081 20.9836 76.721 21.1475 77.5711 21.1475C78.1195 21.1475 78.6404 21.0656 79.0792 20.9016C79.5453 20.7377 79.9292 20.5191 80.2582 20.1912C80.5873 19.8907 80.834 19.5082 80.9986 19.0437L85.6051 19.3443C85.3583 20.4371 84.8922 21.3934 84.1793 22.2131C83.4663 23.0328 82.5341 23.6612 81.4099 24.1257C80.2856 24.5902 78.9695 24.8087 77.4888 24.8087L77.5162 24.7814Z" fill="black"/>
<path d="M110.804 24.4809C110.036 24.4809 109.378 24.2077 108.83 23.6612C108.281 23.1148 108.007 22.459 108.007 21.694C108.007 20.929 108.281 20.2732 108.83 19.7268C109.378 19.1803 110.036 18.9071 110.804 18.9071C111.572 18.9071 112.202 19.1803 112.778 19.7268C113.354 20.2732 113.628 20.929 113.628 21.694C113.628 22.2131 113.491 22.6776 113.244 23.0874C112.998 23.4973 112.641 23.8525 112.23 24.0984C111.819 24.3443 111.352 24.4809 110.831 24.4809H110.804Z" fill="black"/>
<path d="M122.814 0.327881V24.1803H117.769V0.327881H122.814Z" fill="black"/>
<path d="M149 12.2404C149 14.8361 148.507 17.0492 147.519 18.8798C146.532 20.7104 145.189 22.1038 143.489 23.0601C141.789 24.0164 139.897 24.5082 137.785 24.5082C135.674 24.5082 133.755 24.0164 132.055 23.0601C130.355 22.1038 129.038 20.7104 128.051 18.8798C127.064 17.0492 126.571 14.8361 126.571 12.2678C126.571 9.69945 127.064 7.45902 128.051 5.62842C129.038 3.79781 130.382 2.40437 132.055 1.44809C133.755 0.491803 135.647 0 137.785 0C139.924 0 141.789 0.491803 143.489 1.44809C145.189 2.40437 146.532 3.79781 147.519 5.62842C148.507 7.45902 149 9.67213 149 12.2678V12.2404ZM143.873 12.2404C143.873 10.5464 143.626 9.12568 143.132 7.97814C142.639 6.8306 141.926 5.95628 141.021 5.35519C140.116 4.7541 139.047 4.45355 137.813 4.45355C136.579 4.45355 135.537 4.7541 134.605 5.35519C133.7 5.95628 132.987 6.8306 132.493 7.97814C132 9.12568 131.726 10.5464 131.726 12.2404C131.726 13.9344 131.972 15.3552 132.493 16.5027C132.987 17.6503 133.7 18.5246 134.605 19.1257C135.509 19.7268 136.579 20.0273 137.813 20.0273C139.047 20.0273 140.116 19.7268 141.021 19.1257C141.926 18.5246 142.639 17.6503 143.132 16.5027C143.626 15.3552 143.873 13.9344 143.873 12.2404Z" fill="black"/>
<path d="M98.0812 25C97.3408 25 96.5182 24.918 95.6682 24.6448C92.8714 23.7978 89.5536 20.3825 89.7455 18.9891C89.8003 18.5792 90.1568 18.2787 90.5955 18.2787H95.6956C95.9424 18.2787 96.0521 18.0055 95.915 17.8142C95.6134 17.459 95.2843 17.0492 94.9553 16.6667C93.6391 15.1639 91.8568 13.0874 90.6778 11.0109C90.2116 10.2186 90.0197 8.63389 90.6504 7.02187C91.7472 4.26231 94.9827 3.41531 96.3263 3.19673C97.1215 3.06012 99.178 2.70493 101.344 3.82515C103.757 5.08198 104.689 7.34974 105.018 8.44263C105.073 8.60657 105.073 8.71586 105.101 8.82515C105.101 8.96176 105.128 9.18034 105.018 9.31695C104.909 9.45356 104.689 9.53553 104.552 9.56285C104.36 9.56285 104.168 9.56285 104.004 9.56285C102.605 9.56285 101.81 9.56285 101.234 9.56285C100.576 9.56285 100.165 9.56285 99.4522 9.56285C99.5893 9.72679 99.7264 9.91804 99.8909 10.082C101.015 11.4754 102.907 13.7978 103.949 16.9126C104.278 17.8689 105.018 20.1366 103.894 22.0219C102.962 23.6066 102.167 24.235 100.631 24.6175C100.165 24.7268 99.2602 24.9454 98.0812 24.9454V25ZM91.5278 19.4536C91.3084 19.4536 91.1713 19.6995 91.3084 19.8907C92.1036 21.0383 94.0779 22.9508 96.0247 23.5246C97.9715 24.0984 99.6441 23.6885 100.384 23.5246C101.481 23.2514 102.084 22.9235 102.935 21.4754C103.785 20.0273 103.181 18.1967 102.88 17.3224C101.92 14.4262 100.083 12.1858 99.0135 10.8743C98.136 9.80875 97.7796 9.3716 98.0263 8.85247C98.1086 8.68854 98.3005 8.44263 98.7667 8.44263C100.001 8.44263 100.412 8.44263 101.262 8.44263C101.755 8.44263 102.386 8.44263 103.401 8.44263C103.593 8.44263 103.73 8.25138 103.647 8.06012C103.209 7.07651 102.386 5.73772 100.823 4.89072C99.0135 3.93444 97.286 4.23498 96.5457 4.3716C95.394 4.56285 92.6246 5.27323 91.7472 7.48635C91.2262 8.79782 91.4455 10 91.7197 10.4645C92.844 12.4317 94.5988 14.4536 95.8602 15.9563C97.4505 17.8142 97.9989 18.4426 97.7247 19.0437C97.615 19.3169 97.3408 19.4536 97.0118 19.4536H91.5278Z" fill="black"/>
</g>
<defs>
<clipPath id="clip0_99_1018">
<rect width="149" height="25" fill="white"/>
</clipPath>
</defs>
</svg>
